<?xml version="1.0" standalone="no"?>
<!DOCTYPE svg PUBLIC "-//W3C//DTD SVG 20010904//EN"
 "http://www.w3.org/TR/2001/REC-SVG-20010904/DTD/svg10.dtd">
<svg version="1.0" xmlns="http://www.w3.org/2000/svg"
 width="470.000000pt" height="470.000000pt" viewBox="0 0 470.000000 470.000000"
 preserveAspectRatio="xMidYMid meet">
<metadata>
Created by potrace 1.14, written by Peter Selinger 2001-2017
</metadata>
<g transform="translate(0.000000,470.000000) scale(0.100000,-0.100000)"
fill="#000000" stroke="none">
<path d="M2335 4643 c-16 -57 -58 -141 -93 -185 -30 -40 -155 -158 -171 -162
-9 -3 -65 -14 -126 -26 -190 -38 -412 -121 -580 -218 -150 -86 -395 -296 -497
-426 -13 -16 -42 -52 -64 -80 -87 -108 -211 -318 -258 -436 -10 -25 -24 -58
-31 -75 -14 -32 -46 -130 -66 -205 -7 -25 -14 -49 -15 -55 -18 -64 -26 -137
-17 -146 24 -24 52 9 75 86 l22 74 27 -14 c25 -13 26 -17 18 -52 -4 -21 -8
-39 -9 -40 0 -2 0 -14 0 -28 0 -31 -3 -33 -183 -175 -102 -80 -160 -118 -189
-125 l-41 -10 94 -62 c107 -70 211 -146 285 -209 51 -43 51 -44 113 -226 34
-101 66 -192 71 -203 4 -11 23 -58 41 -105 33 -89 90 -189 167 -300 106 -151
393 -400 578 -502 81 -45 266 -128 285 -128 28 0 255 -136 264 -158 7 -19 -47
-9 -183 33 -261 80 -462 185 -657 340 -70 55 -265 244 -265 255 0 4 -14 22
-30 40 -126 141 -290 463 -383 750 -44 138 -75 200 -98 200 -26 0 36 -258 101
-419 37 -94 121 -271 164 -346 110 -193 315 -430 481 -557 153 -116 305 -202
472 -269 86 -34 271 -84 348 -94 28 -3 59 -8 70 -10 11 -2 33 -4 48 -4 20 -1
42 -16 79 -53 48 -50 72 -93 147 -262 12 -26 24 -47 26 -45 1 2 14 32 28 67
56 137 137 241 221 281 40 20 57 23 158 36 249 30 588 190 828 390 79 66 210
199 271 275 154 192 296 459 370 695 46 145 79 315 63 315 -33 -1 -54 -43 -94
-185 -47 -168 -93 -291 -153 -410 -39 -79 -118 -213 -143 -244 -7 -9 -39 -50
-72 -92 -62 -78 -214 -236 -271 -279 -18 -14 -38 -30 -44 -36 -73 -65 -270
-184 -401 -242 -104 -46 -345 -128 -400 -136 -30 -4 -28 -2 34 55 65 60 108
84 350 195 140 64 206 102 323 186 321 231 557 577 682 1000 28 97 112 212
188 259 56 34 250 187 255 200 2 5 0 9 -5 10 -33 3 -55 12 -75 31 -13 13 -82
70 -154 127 l-132 103 -6 69 c-4 38 -4 73 -1 79 14 23 32 7 45 -42 18 -75 29
-96 53 -102 45 -12 47 15 12 152 -55 216 -124 398 -203 532 -45 77 -149 224
-199 281 -111 128 -187 205 -273 275 -19 16 -37 31 -40 35 -3 3 -30 23 -60 45
-228 165 -538 302 -770 340 -19 4 -42 8 -50 9 -8 2 -25 4 -37 4 -14 1 -55 34
-110 89 -94 94 -139 165 -167 265 -9 31 -18 57 -21 57 -2 0 -11 -26 -20 -57z
m-355 -451 c0 -14 -84 -87 -125 -109 -22 -12 -76 -33 -120 -48 -159 -54 -360
-165 -493 -272 -71 -57 -269 -255 -306 -306 -79 -109 -127 -191 -228 -398
-109 -221 -113 -227 -144 -231 -31 -4 -32 -3 -27 27 18 99 164 418 240 523
294 413 586 628 1068 788 102 34 135 40 135 26z m970 -72 c281 -100 502 -235
698 -428 189 -185 296 -331 407 -556 66 -134 140 -335 124 -337 -74 -11 -83
-3 -123 97 -13 32 -38 91 -56 129 -18 39 -43 94 -56 123 -13 30 -47 86 -76
125 -28 40 -52 79 -53 89 -2 30 -58 108 -87 121 -15 6 -28 16 -28 21 0 13
-145 163 -212 219 -133 112 -339 226 -535 298 -51 18 -93 38 -93 43 0 6 -21
32 -47 59 l-48 48 40 -7 c22 -3 87 -23 145 -44z"/>
</g>
</svg>
